<svg xmlns="http://www.w3.org/2000/svg" width="1080" height="1080" viewBox="0 0 1080 1080" version="1.1">
	<path d="M 221 447.932 L 221 723.864 223.750 725.785 C 225.262 726.841, 296.589 768.547, 382.253 818.465 L 538.007 909.224 609.753 867.804 C 649.214 845.024, 721.195 803.466, 769.712 775.455 C 818.228 747.443, 857.603 724.213, 857.212 723.833 C 856.298 722.945, 541.091 541, 540.468 541 C 540.210 541, 540 582.625, 540 633.500 C 540 684.375, 539.663 725.985, 539.250 725.967 C 538.837 725.949, 502.950 705.117, 459.500 679.674 L 380.500 633.414 380.500 540.124 L 380.500 446.834 458.866 401.501 C 501.968 376.568, 537.639 355.761, 538.135 355.265 C 538.972 354.428, 224.246 172, 221.967 172 C 221.347 172, 221 271.012, 221 447.932 M 698.784 263.221 C 612.040 313.315, 541.262 354.614, 541.498 354.997 C 541.735 355.380, 577.265 376.124, 620.454 401.096 L 698.980 446.500 698.990 507.156 L 699 567.811 778.250 613.430 L 857.500 659.048 857.749 590.274 C 858.538 372.653, 858.418 172.006, 857.500 172.070 C 856.950 172.109, 785.528 213.127, 698.784 263.221" stroke="none" fill="#3f611e" fill-rule="evenodd"/>
</svg>